Coordinates
version=1
nRows=12
nColumns=34
inDegrees=yes

Units are S.I. units (second, meters, Newtons, ...)
If the header above contains a line with 'inDegrees', this indicates whether rotational values are in degrees (yes) or radians (no).

endheader
time	pelvis_tilt	pelvis_list	pelvis_rotation	pelvis_tx	pelvis_ty	pelvis_tz	hip_flexion_r	hip_adduction_r	hip_rotation_r	knee_angle_r	ankle_angle_r	subtalar_angle_r	mtp_angle_r	hip_flexion_l	hip_adduction_l	hip_rotation_l	knee_angle_l	ankle_angle_l	subtalar_angle_l	mtp_angle_l	lumbar_extension	lumbar_bending	lumbar_rotation	arm_flex_r	arm_add_r	arm_rot_r	elbow_flex_r	pro_sup_r	arm_flex_l	arm_add_l	arm_rot_l	elbow_flex_l	pro_sup_l
      0.00000000	      1.39836848	     -2.20156456	      0.60028979	      0.86605216	      0.92599565	     -0.07772340	      2.22620628	     -2.80641396	     -7.83988204	      4.00350162	      1.88947208	     -6.90937551	      0.00000000	      1.74228998	     -7.49895454	     -8.49160751	      2.75256958	      5.60967590	     -4.43667438	      0.00000000	     -5.40689979	      2.63692396	     -5.60457663	     13.27690470	    -11.45841232	     18.77587642	     30.86016599	     85.88291840	     13.84078019	     -8.31823017	      8.84399561	     34.29305939	     80.98035450
      0.01666670	     -0.16785809	     -1.19211933	      0.35986934	      0.86958263	      0.92435085	     -0.07740649	      3.57210095	     -3.46740485	     -8.38825852	      3.07676378	      4.29853577	     -4.57808518	      0.00000000	      2.83590184	     -6.10276719	    -11.33700757	      2.22862805	      6.81900023	     -2.42674231	      0.00000000	     -2.21989618	      1.55350825	     -4.91160290	     12.33636935	    -11.25552907	     16.91323320	     30.30162289	     85.50850367	     14.46629590	     -7.28465445	      5.32092756	     30.87521316	     80.30882178
      0.03333330	     -1.01376625	     -0.20269486	      0.00793240	      0.87259244	      0.92251841	     -0.07704112	      3.91025548	     -4.25599880	     -9.21441211	      1.85771289	      4.12764469	     -3.84525255	      0.00000000	      3.24561133	     -4.99294745	    -13.15260486	      1.70669362	      6.24740939	     -1.51292146	      0.00000000	     -0.87935150	      0.46852197	     -4.11441338	     12.68359005	    -11.02322344	     16.40249554	     30.52616073	     85.61027077	     14.88584623	     -7.49564395	      4.58481320	     30.73271052	     79.91332525
      0.05000000	     -1.03645576	      0.22021708	      0.00517505	      0.86939933	      0.92196510	     -0.07672294	      3.71905042	     -4.71487125	     -9.33187410	      1.25393829	      4.47727400	     -2.95166136	      0.00000000	      2.93643134	     -4.47658373	    -13.89970012	      0.97953446	      6.10184734	     -0.74235228	      0.00000000	     -0.80603974	      0.03539862	     -3.17837867	     13.68010976	    -11.44165463	     16.31418697	     30.88712671	     85.77917886	     16.15660572	     -7.83329602	      4.49191939	     31.53759417	     79.55959364
      0.06666670	     -1.31229698	      0.30431689	      0.22711375	      0.86949991	      0.92196135	     -0.07821690	      3.72447277	     -4.78658630	     -9.46565495	      0.63214009	      4.45104028	     -2.89531191	      0.00000000	      3.07156079	     -4.27408455	    -13.97218789	      0.34822802	      5.95533024	     -0.57789765	      0.00000000	     -0.47117245	      0.13071675	     -2.88275593	     14.82723777	    -11.64860786	     16.23457086	     31.27477521	     85.78738375	     17.07257390	     -8.11160038	      4.42110947	     31.84672360	     79.51511990
      0.08333330	     -1.49241601	      0.34420146	      0.42083830	      0.86892393	      0.92247255	     -0.07694673	      3.66120076	     -4.74168045	     -9.60850325	      0.15248787	      4.29887532	     -2.77163720	      0.00000000	      3.24855598	     -4.16768152	    -14.04631440	      0.00000000	      5.58855085	     -0.35268354	      0.00000000	     -0.21237096	      0.13458147	     -2.54557602	     15.91501509	    -11.78737528	     16.20484931	     31.70116078	     85.79700831	     18.11962462	     -8.42507885	      4.32278875	     32.26484885	     79.46012696
      0.10000000	     -1.35213053	      0.36989455	      0.66603766	      0.86854423	      0.92336471	     -0.07704078	      3.42798618	     -4.74344444	    -10.05333720	      0.00000000	      3.94304855	     -2.42507888	      0.00000000	      3.27124193	     -4.15297350	    -14.49925568	      0.00000000	      4.49949858	      0.16646434	      0.00000000	     -0.46932439	      0.03378018	     -2.09868837	     17.00529528	    -12.14343569	     16.43579649	     32.65167611	     85.85200897	     19.40749545	     -8.62691534	      4.22153359	     33.20731183	     79.22836059
      0.11666670	     -1.49859130	      0.38282871	      0.79617007	      0.86754812	      0.92380187	     -0.07714392	      3.59173209	     -4.73376461	    -10.30152819	      0.00000000	      3.96502274	     -2.40038684	      0.00000000	      3.51948864	     -4.11639124	    -14.51490746	      0.00000000	      4.43569662	      0.31184171	      0.00000000	     -0.38364149	      0.07922084	     -1.75756783	     18.26477442	    -12.16481858	     16.42717091	     33.23224389	     85.85832312	     20.51894212	     -8.83883763	      4.11168246	     33.70226973	     79.15339196
      0.13333330	     -1.60156560	      0.35405678	      0.98808886	      0.86592728	      0.92296555	     -0.07557639	      3.71567341	     -4.64347961	    -10.59792529	      0.00000000	      3.91327923	     -2.35200199	      0.00000000	      3.77392163	     -4.16235550	    -14.61526380	      0.00037114	      4.19415606	      0.47553919	      0.00000000	     -0.35198461	      0.03701814	     -1.46687651	     19.50001416	    -12.17141004	     16.44778450	     33.86582733	     85.87262843	     21.76033447	     -9.05179288	      3.97801080	     34.29973596	     79.06566255
      0.15000000	     -0.86631508	      0.30316589	      1.24452601	      0.86680275	      0.92218167	     -0.07726697	      2.84517432	     -4.58182694	    -11.36995488	      0.00000000	      3.72853359	     -1.70480841	      0.00000000	      3.06008066	     -4.20947289	    -14.96144245	      0.00000000	      4.03918476	      1.27217424	      0.00000000	     -1.48775993	      0.08573503	     -1.09120910	     20.24726731	    -13.22325152	     17.52943171	     36.85938893	     86.16188432	     22.45474481	     -9.16969149	      3.44102562	     37.12866645	     78.02657442
      0.16666670	     -1.04670759	      0.27739758	      1.41386980	      0.86481428	      0.92297692	     -0.07723108	      3.07166713	     -4.54342830	    -11.56721843	      0.00000000	      3.67068003	     -1.72489591	      0.00000000	      3.40322527	     -4.22917631	    -14.98672437	      0.00000000	      3.92196432	      1.35633246	      0.00000000	     -1.20761678	      0.10746180	     -0.81345028	     21.57969878	    -13.25611090	     17.42136912	     37.28126908	     86.16775116	     23.55035820	     -9.27080900	      3.32628312	     37.58048188	     77.95493546
      0.18333330	     -1.16041533	      0.24314308	      1.75404584	      0.86706838	      0.92614508	     -0.07809878	      3.11755386	     -4.53377571	    -11.97327653	      0.00000000	      2.99949763	     -1.81327580	      0.00000000	      3.61263922	     -4.24892596	    -15.07684190	      0.00000000	      3.53082343	      1.77586340	      0.00000000	     -1.09952543	      0.22416739	     -1.15506634	     22.92353535	    -13.45697892	     18.35462716	     38.14547863	     87.45713573	     23.51866989	     -9.47664761	      2.21427884	     40.15511280	     74.12546810
